<svg width="1400" height="900" viewBox="0 0 1400 900" fill="none" xmlns="http://www.w3.org/2000/svg">
  <ellipse cx="720" cy="795" rx="430" ry="48" fill="#17211C" opacity="0.12"/>

  <g transform="translate(135 92)">
    <path d="M190 360L578 178L968 360V725H190V360Z" fill="url(#wall)" stroke="#C6D8D0" stroke-width="5"/>
    <path d="M190 360L578 178L968 360V407L578 232L190 407V360Z" fill="#DDEBE5"/>
    <path d="M578 178L968 360V725H578V178Z" fill="#CFE2DA" opacity="0.5"/>

    <path d="M282 346L578 102L874 346V438H282V346Z" fill="#DDEBE5" stroke="#BFD5CC" stroke-width="5"/>
    <path d="M314 358L578 148L842 358V416H314V358Z" fill="#D1E3DA"/>

    <path d="M578 136V430" stroke="#8B744F" stroke-width="7" stroke-linecap="round" opacity="0.4"/>
    <path d="M578 154L350 430" stroke="#8B744F" stroke-width="7" stroke-linecap="round" opacity="0.32"/>
    <path d="M578 154L806 430" stroke="#8B744F" stroke-width="7" stroke-linecap="round" opacity="0.32"/>

    <path d="M334 430H822" stroke="#B8A889" stroke-width="18" stroke-linecap="round"/>
    <path d="M318 400C360 386 406 394 450 389C502 383 540 392 584 386C634 380 682 389 728 394C770 399 806 390 838 400V437H318V400Z" fill="#FFFFFF" opacity="0.99"/>
    <path d="M326 400C360 386 406 394 450 389C502 383 540 392 584 386C634 380 682 389 728 394C770 399 806 390 830 400" stroke="#EEF5F1" stroke-width="12" stroke-linecap="round"/>
    <path d="M332 419H824" stroke="#FFFFFF" stroke-width="34" stroke-linecap="round"/>

    <rect x="288" y="552" width="180" height="118" rx="16" fill="#E6F0EC" stroke="#C6D8D0" stroke-width="4"/>
    <rect x="688" y="552" width="180" height="118" rx="16" fill="#E6F0EC" stroke="#C6D8D0" stroke-width="4"/>
    <path d="M250 708H904" stroke="#B8A889" stroke-width="18" stroke-linecap="round"/>
  </g>

  <defs>
    <linearGradient id="wall" x1="325" y1="270" x2="1103" y2="817" gradientUnits="userSpaceOnUse">
      <stop stop-color="#F4FAF7"/>
      <stop offset="1" stop-color="#D3E5DD"/>
    </linearGradient>
    <linearGradient id="roof" x1="247" y1="182" x2="1179" y2="448" gradientUnits="userSpaceOnUse">
      <stop stop-color="#17211C"/>
      <stop offset="1" stop-color="#24715A"/>
    </linearGradient>
    <linearGradient id="insulation" x1="567" y1="532" x2="899" y2="574" gradientUnits="userSpaceOnUse">
      <stop stop-color="#8FD4C0"/>
      <stop offset="1" stop-color="#24715A"/>
    </linearGradient>
  </defs>
</svg>
